# xmcd
# 
# Track frame offsets:
#     150
#     20903
#     43880
#     68247
#     92249
#     115526
#     131555
#     151358
#     169538
#     193664
#     219548
#     239183
#     253375
#     273532
#     291869
#     312047
# 
# Disc length: 4485
# 
# Revision: 1
# Processed by: cddbd v1.5.2PL0 Copyright (c) Steve Scherf et al.
# Submitted via: fre:ac v1.0.31
# 
DISCID=f8118310
DTITLE=梅艷芳 - 梅艷芳 GREATEST HITS UPMCD 24K金碟
DYEAR=2017
DGENRE=
TTITLE0=逝去的愛
TTITLE1=蔓珠莎華
TTITLE2=夢幻的擁抱
TTITLE3=似水流年
TTITLE4=夕陽之歌
TTITLE5=交出我的心
TTITLE6=女人心
TTITLE7=夢裡共醉
TTITLE8=朦朧夜雨裡
TTITLE9=孤身走我路
TTITLE10=珍惜再會時
TTITLE11=兩心不變
TTITLE12=情歸何處
TTITLE13=耶利亞
TTITLE14=愛你,想你
TTITLE15=裝飾的眼淚
EXTD=
EXTT0=
EXTT1=
EXTT2=
EXTT3=
EXTT4=
EXTT5=
EXTT6=
EXTT7=
EXTT8=
EXTT9=
EXTT10=
EXTT11=
EXTT12=
EXTT13=
EXTT14=
EXTT15=
PLAYORDER=
